<svg width="165" height="210" viewBox="0 0 165 210" fill="none" xmlns="http://www.w3.org/2000/svg">
<path fill-rule="evenodd" clip-rule="evenodd" d="M11 12.0312C24.185 12.1302 36.2238 12.471 47.138 13.1304L48.072 14.8031L50.3317 100.672C38.8698 101.303 25.8261 101.687 11 101.891V12.0312ZM77.452 6.1681C55.8243 2.27776 30.2652 0.943493 0.990372 1.00004L0.997108 4.48706L1 7.00088V102C0.986299 102 0.972597 102 0.958893 102L1 107.001V200L0.931061 200L1 204.998V208H1.04142L1.069 210C32.6878 209.563 58.5139 208.186 79.4406 205.046C100.34 201.91 116.726 196.965 129.23 189.149C133.458 186.506 137.196 183.567 140.491 180.316L154.017 204.541L154 207.975L164 208.025L164.026 202.752L164.366 202.562L164.03 201.962L165 7.02488L155 6.97513L154.743 58.5699C153.954 56.6221 153.102 54.7303 152.189 52.8934C145.18 38.8016 134.646 28.2414 120.797 20.4979C118.845 19.4063 116.827 18.3708 114.743 17.3888C110.784 15.2068 106.378 13.3387 101.565 11.7355C94.5461 9.39723 86.5013 7.57264 77.452 6.1681ZM75.7475 16.0197C88.9963 18.403 100.453 21.7484 110.175 26.2904C114.674 28.8044 118.217 31.6674 120.906 34.8886C125.534 40.4317 128 47.4714 128 56.7492C128 66.5347 126.461 73.6786 123.092 79.1256C119.779 84.4832 114.309 88.8172 105.175 92.2188C104.518 92.4636 103.844 92.7028 103.153 92.9363L59.0904 14.0241C65.0302 14.5628 70.5811 15.2228 75.7475 16.0197ZM108.101 101.798C108.29 101.729 108.478 101.66 108.665 101.59C119.224 97.6576 126.794 92.1526 131.597 84.3854C136.346 76.7076 138 67.441 138 56.7492C138 53.5401 137.75 50.4762 137.244 47.5581C139.495 50.5814 141.49 53.8386 143.235 57.3469C149.314 69.5669 152.5 85.1298 152.5 105C152.5 130.633 149.46 148.929 141.849 162.237L108.101 101.798ZM93.2228 95.664L58.5703 33.6045L60.3183 100.03C73.5631 99.0409 84.3978 97.6298 93.2228 95.664ZM60.5817 110.04C75.7503 108.919 88.1898 107.232 98.2902 104.739L135.388 171.178C132.12 174.79 128.318 177.926 123.929 180.67C113.084 187.449 98.2334 192.114 77.9566 195.157C73.21 195.869 68.1864 196.49 62.8709 197.028L60.5817 110.04ZM50.595 110.677C38.8879 111.317 25.7374 111.693 11 111.892V199.824C26.5197 199.491 40.4307 198.889 52.8908 197.918L50.595 110.677ZM147.392 172.165C150.083 168.34 152.349 164.179 154.24 159.665L154.118 184.211L147.392 172.165Z" fill="black"/>
</svg>
