<svg width="512" height="512" viewBox="0 0 512 512" fill="none" xmlns="http://www.w3.org/2000/svg">
<path d="M441.412 140.235V479.016C441.412 497.235 426.634 511.999 408.429 511.999H103.572C85.353 511.999 70.589 497.235 70.589 479.016V32.983C70.588 14.764 85.352 0 103.572 0H301.177L441.412 140.235Z" fill="#518EF8"/>
<path d="M350.806 257.054H161.18V278.125H350.806V257.054Z" fill="white"/>
<path d="M350.806 304.112H161.18V325.183H350.806V304.112Z" fill="white"/>
<path d="M350.806 351.171H161.18V372.242H350.806V351.171Z" fill="white"/>
<path d="M296.035 398.23H161.18V419.301H296.035V398.23Z" fill="white"/>
<path d="M320.31 137.188L441.412 187.079V140.235L372.751 119.962L320.31 137.188Z" fill="#3A5BBC"/>
<path d="M441.412 140.235H334.16C315.94 140.235 301.177 125.471 301.177 107.252V0L441.412 140.235Z" fill="#ACD1FC"/>
<path d="M145.096 117.432C140.104 117.432 135.592 116.328 131.56 114.12C127.576 111.912 124.432 108.864 122.128 104.976C119.872 101.04 118.744 96.648 118.744 91.8C118.744 86.952 119.872 82.584 122.128 78.696C124.432 74.76 127.6 71.688 131.632 69.48C135.664 67.272 140.176 66.168 145.168 66.168C148.912 66.168 152.368 66.792 155.536 68.04C158.704 69.288 161.392 71.112 163.6 73.512L160.216 76.896C156.28 72.912 151.312 70.92 145.312 70.92C141.328 70.92 137.704 71.832 134.44 73.656C131.176 75.48 128.608 77.976 126.736 81.144C124.912 84.312 124 87.864 124 91.8C124 95.736 124.912 99.288 126.736 102.456C128.608 105.624 131.176 108.12 134.44 109.944C137.704 111.768 141.328 112.68 145.312 112.68C151.36 112.68 156.328 110.664 160.216 106.632L163.6 110.016C161.392 112.416 158.68 114.264 155.464 115.56C152.296 116.808 148.84 117.432 145.096 117.432ZM216.3 66.6L193.98 117H188.724L166.404 66.6H172.164L191.46 110.376L210.9 66.6H216.3Z" fill="white"/>
</svg>
